<svg xmlns="http://www.w3.org/2000/svg" width="43.072" height="39.191" viewBox="0 0 43.072 39.191"><defs><style>.a{fill:#b3e5fc;}.b{fill:#81d4fa;}.c{fill:#fff;}.d{fill:#0e3a7a;}</style></defs><path class="a" d="M43.393,16.244A12.572,12.572,0,0,0,30.714,4.764H11.349A8.607,8.607,0,0,0,3.664,11.91a8.284,8.284,0,0,0,.845,5.1A8.438,8.438,0,0,0,17.143,19.9a1.537,1.537,0,0,1,2.367.8,12.3,12.3,0,0,0,23.884-4.457Z" transform="translate(-1.918 8.346)"/><path class="b" d="M40.718,20.472A12.572,12.572,0,0,0,28.038,8.991H8.673v.231a8.284,8.284,0,0,0,.738,5.1,8.438,8.438,0,0,0,12.633,2.889,1.537,1.537,0,0,1,2.367.8A12.3,12.3,0,0,0,39.78,26.081,12.3,12.3,0,0,0,40.718,20.472Z" transform="translate(0.757 4.119)"/><path class="c" d="M43.206,15.8a12.3,12.3,0,0,1-22.224-2.72,1.537,1.537,0,0,0-2.367-.8A8.438,8.438,0,0,1,5.982,9.394a8.253,8.253,0,0,1-.861-4.9A8.023,8.023,0,0,0,3.584,8.133a8.284,8.284,0,0,0,.845,5.1,8.438,8.438,0,0,0,12.633,2.889,1.537,1.537,0,0,1,2.367.8A12.3,12.3,0,0,0,43.19,15.8Z" transform="translate(-1.961 12.123)"/><path class="d" d="M17.1,3.5H12.785A10.205,10.205,0,0,0,2.611,11.954a10,10,0,0,0,15.922,9.5,13.83,13.83,0,0,0,27-5.026A14.109,14.109,0,0,0,32.642,3.562a1.543,1.543,0,1,0-.277,3.074,10.989,10.989,0,0,1,10.067,9.928,10.758,10.758,0,0,1-20.994,4,3.058,3.058,0,0,0-4.764-1.568A6.9,6.9,0,0,1,6.345,16.564a6.793,6.793,0,0,1-.692-4.18,7.1,7.1,0,0,1,7.131-5.809H17.1a1.537,1.537,0,1,0,0-3.074Z" transform="translate(-2.494 8.026)"/><path class="d" d="M17.537,13A1.537,1.537,0,0,0,16,14.537V32.98a1.537,1.537,0,0,0,3.074,0V14.537A1.537,1.537,0,0,0,17.537,13Z" transform="translate(4.757 -9.926)"/><path class="d" d="M19.15,24a1.537,1.537,0,0,0-1.091.446l-4.611,4.611a1.543,1.543,0,0,0,2.182,2.182L19.15,27.7l3.52,3.535a1.543,1.543,0,0,0,2.182-2.182l-4.611-4.611A1.537,1.537,0,0,0,19.15,24Z" transform="translate(3.144 -23.996)"/></svg>